<?xml version="1.0" encoding="UTF-8"?>
<svg xmlns="http://www.w3.org/2000/svg" xmlns:xlink="http://www.w3.org/1999/xlink" width="998.3pt" height="451.6pt" viewBox="0 0 998.3 451.6" version="1.1">
<g id="surface1">
<path style=" stroke:none;fill-rule:evenodd;fill:rgb(90.625%,24.705505%,6.665039%);fill-opacity:1;" d="M 646.550781 -0.03125 L 863.039063 0.128906 L 733.496094 75.800781 L 318.210938 75.898438 C 349.152344 53.21875 383.828125 35.628906 420.363281 23.910156 C 435.570313 19.578125 450.789063 15.070313 466.421875 12.46875 C 528.695313 1.347656 583.824219 0.527344 646.550781 -0.03125 Z M 299.871094 93.46875 C 301.261719 92.089844 302.28125 89.628906 304.589844 89.800781 L 504.203125 90 C 492.621094 93.589844 480.632813 95.769531 469.121094 99.609375 C 459.453125 102.917969 449.742188 106.148438 440.300781 110.050781 C 436.492188 111.488281 432.921875 114.238281 428.660156 113.859375 L 286.679688 113.679688 C 290.113281 106.367188 294.511719 99.519531 299.871094 93.46875 Z M 589.671875 124.710938 C 603.300781 123.808594 616.972656 124.777344 630.621094 124.359375 C 638.613281 123.960938 646.570313 125.058594 654.5625 124.960938 C 677.992188 126.160156 701.652344 127.800781 724.28125 134.417969 C 740.613281 138.6875 756.578125 146.078125 768.703125 158.050781 C 776.839844 165.867188 781.703125 176.988281 781.78125 188.289063 C 782.203125 197.339844 779.222656 206.089844 775.640625 214.269531 C 767.902344 229.621094 756.171875 242.640625 742.921875 253.460938 C 714.3125 276.847656 679.671875 291.4375 644.613281 302.179688 C 595.496094 315.277344 539.164063 325.097656 488.613281 323.609375 L 168.078125 323.5 L 298.171875 247.417969 L 480.53125 248.777344 C 512.15625 249.015625 535.726563 246.105469 568.089844 238.660156 C 600.867188 229.730469 623.613281 219.816406 650.632813 199.058594 C 601.613281 198.9375 552.578125 199.058594 503.5625 199 C 492.410156 198.800781 480.742188 196.148438 472.03125 188.828125 C 466.351563 184.238281 463.460938 176.199219 465.613281 169.128906 C 468.390625 158.109375 477.992188 150.527344 487.460938 145.210938 C 498.621094 138.480469 511.28125 134.949219 523.78125 131.617188 C 545.3125 126.300781 567.613281 125.398438 589.671875 124.710938 Z M 282.152344 127.628906 L 405.78125 127.640625 C 394.660156 134.789063 384.140625 143.019531 375.53125 153.109375 C 345.8125 153.109375 316.101563 153.140625 286.382813 153.097656 C 281.59375 143.339844 280.894531 135.136719 282.152344 127.628906 Z M 297.890625 167.019531 C 320.742188 166.789063 343.601563 166.9375 366.460938 166.9375 C 362.679688 175.519531 361.363281 185.128906 363.328125 194.339844 C 352.902344 191.410156 342.242188 189.277344 332.070313 185.519531 C 319.941406 180.949219 307.402344 176.167969 297.890625 167.019531 Z M 297.890625 167.019531 "/>
<path style=" stroke:none;fill-rule:evenodd;fill:rgb(14.892578%,23.925781%,27.830505%);fill-opacity:1;" d="M 211.78125 382.410156 C 217.53125 380.519531 223.632813 380.449219 229.621094 380.230469 C 239.328125 379.699219 249.191406 380.070313 258.691406 382.289063 C 261.496094 382.867188 264.339844 384.570313 265.28125 387.4375 C 266.8125 392.339844 265.113281 397.4375 263.671875 402.148438 C 256.519531 402.21875 249.371094 402.179688 242.222656 402.167969 C 242.441406 400.089844 243.519531 397.640625 241.882813 395.867188 C 239.421875 394.378906 236.402344 394.558594 233.640625 394.347656 C 229.230469 394.359375 224.621094 394.367188 220.511719 396.167969 C 217.160156 398.277344 216.03125 402.800781 217.210938 406.46875 C 220.632813 407.257813 224.121094 407.699219 227.640625 407.660156 C 236.078125 407.589844 244.578125 408.519531 252.722656 410.777344 C 256.492188 411.710938 259.410156 415.210938 259.328125 419.148438 C 259.371094 426.097656 256.363281 432.679688 253.121094 438.679688 C 247.460938 448.539063 234.890625 450.300781 224.5625 450.46875 C 214.222656 450.519531 203.789063 450.949219 193.570313 449.097656 C 190.0625 448.347656 185.78125 447.308594 184.421875 443.519531 C 182.589844 438.289063 184.722656 432.859375 186.011719 427.78125 C 193.089844 427.738281 200.160156 427.710938 207.242188 427.617188 C 206.820313 430.417969 205.621094 435.300781 209.679688 435.890625 C 215.660156 436.230469 221.703125 436.179688 227.679688 435.828125 C 232.570313 435.679688 235.671875 430.660156 235.691406 426.179688 C 235.589844 423.667969 232.480469 423.390625 230.601563 423.089844 C 219.589844 422.160156 208.183594 422.578125 197.660156 418.71875 C 194.539063 417.679688 192.773438 414.390625 192.890625 411.230469 C 192.960938 404.769531 195.261719 398.519531 198.230469 392.859375 C 200.902344 387.527344 206.289063 384.25 211.78125 382.410156 Z M 666.179688 386.929688 C 673.746094 382.199219 682.828125 380.789063 691.589844 380.179688 C 700.113281 379.890625 708.730469 379.417969 717.183594 380.867188 C 721.261719 381.660156 725.921875 383.167969 727.730469 387.328125 C 730.53125 393.21875 727.746094 399.769531 726.050781 405.570313 C 718.703125 405.519531 711.363281 405.507813 704.011719 405.570313 C 703.910156 402.71875 705.511719 398.140625 701.632813 397.160156 C 694.851563 395.460938 687.132813 395.347656 680.730469 398.367188 C 675.339844 402.519531 674.480469 409.949219 672.171875 415.9375 C 670.882813 420.578125 668.523438 425.167969 668.972656 430.089844 C 669.523438 434.097656 674.351563 434.539063 677.570313 434.789063 C 682.691406 434.859375 688.261719 435.109375 692.863281 432.480469 C 695.960938 430.667969 696.960938 427 698.140625 423.859375 C 705.550781 423.859375 712.972656 423.828125 720.382813 423.878906 C 717.980469 429.929688 716.160156 436.519531 711.863281 441.570313 C 706.300781 447.089844 698.382813 449.6875 690.691406 450.257813 C 682.011719 450.898438 673.300781 450.398438 664.601563 450.449219 C 659.300781 450.230469 653.601563 449.808594 649.101563 446.699219 C 645.78125 444.359375 645.121094 440 645.113281 436.230469 C 645.023438 426.558594 648.820313 417.53125 651.632813 408.449219 C 654.261719 400.109375 658.851563 391.988281 666.179688 386.929688 Z M 393.421875 387.738281 C 409.03125 388.167969 424.800781 386.597656 440.246094 389.4375 C 444.050781 390.269531 448.789063 391.308594 450.328125 395.398438 C 452.300781 401.449219 450.222656 407.839844 448.351563 413.648438 C 445.992188 421.347656 441.300781 429.21875 433.3125 432 C 422.070313 435.828125 409.996094 434.070313 398.363281 434.300781 C 396.761719 439.46875 395.121094 444.617188 393.691406 449.839844 C 387.019531 450.667969 380.300781 449.640625 373.621094 450.449219 C 376.289063 439.050781 380.671875 428.140625 384.03125 416.9375 C 386.929688 407.128906 390.191406 397.4375 393.421875 387.738281 Z M 403.222656 419.6875 C 409.460938 419.558594 415.746094 420.109375 421.960938 419.300781 C 426.851563 418.449219 428.050781 412.859375 429.039063 408.789063 C 429.402344 406.640625 430.339844 403.097656 427.382813 402.449219 C 421.351563 401.128906 415.089844 401.929688 408.972656 401.558594 C 406.972656 407.578125 405.246094 413.679688 403.222656 419.6875 Z M 565.453125 387.75 C 579.246094 387.859375 593.070313 387.558594 606.871094 387.898438 C 612.410156 388.539063 618.710938 388.789063 623.050781 392.730469 C 625.996094 396.507813 624.882813 401.75 623.882813 406.039063 C 622.371094 411.410156 620.410156 416.9375 616.539063 421.078125 C 612.839844 424.558594 607.589844 425.269531 602.839844 426.339844 C 606.410156 427.289063 611.5625 427.398438 613.03125 431.550781 C 614.496094 437.929688 610.953125 443.917969 609.492188 449.960938 C 602.671875 450.6875 595.800781 450.257813 588.960938 450.367188 C 589.960938 446.300781 591.78125 442.367188 592.023438 438.140625 C 592.339844 435.667969 589.882813 434.019531 587.652344 434.039063 C 582.011719 433.640625 576.328125 433.789063 570.679688 433.777344 C 569.152344 439.398438 567.53125 445.03125 565.261719 450.410156 C 558.710938 449.75 552.132813 450.140625 545.5625 450.007813 C 552.179688 429.25 558.828125 408.507813 565.453125 387.75 Z M 580.882813 402.558594 C 578.972656 408.160156 577.402344 413.867188 575.421875 419.449219 C 581.890625 419.320313 588.371094 419.6875 594.820313 419.328125 C 599.570313 418.609375 601.382813 413.347656 602.300781 409.289063 C 602.523438 407.429688 603.703125 405.039063 601.921875 403.628906 C 599.410156 402.1875 596.363281 402.558594 593.589844 402.398438 C 589.351563 402.480469 585.078125 401.929688 580.882813 402.558594 Z M 891.101563 387.898438 C 896.761719 388.558594 903.339844 388.757813 907.621094 393.050781 C 910.78125 397.507813 909.0625 403.460938 907.621094 408.269531 C 905.746094 413.238281 903.746094 418.589844 899.621094 422.128906 C 895.960938 424.699219 891.429688 425.378906 887.171875 426.320313 C 891.3125 427.140625 897.3125 427.96875 897.871094 433.25 C 898.132813 439.277344 895.050781 444.859375 893.242188 450.488281 C 886.550781 449.558594 879.828125 450.597656 873.140625 449.949219 C 874.261719 445.800781 876.589844 441.769531 876.261719 437.367188 C 876.121094 434.980469 873.632813 434.039063 871.578125 434 C 866.113281 433.660156 860.621094 433.859375 855.152344 433.6875 C 853.320313 439.117188 851.5625 444.578125 849.839844 450.058594 C 843.132813 449.789063 836.429688 450.410156 829.730469 450.007813 C 836.632813 429.320313 842.996094 408.460938 849.820313 387.738281 C 863.578125 387.867188 877.339844 387.558594 891.101563 387.898438 Z M 865.300781 402.210938 C 863.328125 407.917969 861.441406 413.648438 859.722656 419.4375 C 865.722656 419.398438 871.722656 419.550781 877.730469 419.4375 C 880.132813 419.488281 882.480469 418.300781 883.761719 416.230469 C 886.023438 412.710938 887.433594 408.398438 886.980469 404.199219 C 884.941406 402.488281 882.152344 402.519531 879.652344 402.429688 C 874.863281 402.339844 870.078125 402.347656 865.300781 402.210938 Z M 959.640625 387.867188 C 970.242188 387.519531 981.03125 386.960938 991.421875 389.527344 C 994.03125 390.070313 996.421875 391.890625 997.171875 394.519531 C 998.351563 398.910156 996.921875 403.417969 995.339844 407.507813 C 989.191406 407.417969 983.03125 407.449219 976.882813 407.480469 C 976.613281 405.347656 977.8125 401.679688 974.929688 401 C 969.851563 399.78125 964.421875 400.03125 959.328125 401.050781 C 955.933594 401.578125 953.640625 404.9375 953.722656 408.25 C 953.300781 409.828125 954.328125 411.238281 955.933594 411.460938 C 966.589844 412.828125 977.820313 411.828125 987.996094 415.980469 C 992.363281 418.230469 992.363281 423.980469 991.101563 428.089844 C 988.980469 435.609375 985.601563 444.050781 977.863281 447.308594 C 968.0625 451.597656 957.03125 450.238281 946.621094 450.46875 C 940.023438 449.96875 932.839844 450.320313 926.910156 446.96875 C 921.941406 442.660156 924.910156 435.359375 926.289063 430.027344 C 932.519531 429.96875 938.761719 429.960938 944.996094 429.859375 C 945.050781 432.359375 943.601563 436.179688 946.800781 437.328125 C 950.011719 438.019531 953.320313 437.597656 956.578125 437.660156 C 959.992188 437.550781 963.640625 437.988281 966.8125 436.390625 C 969.363281 434.878906 970.078125 431.78125 971.070313 429.199219 C 970.78125 428.597656 970.203125 427.398438 969.921875 426.800781 C 958.710938 424.628906 946.691406 426.488281 935.996094 421.769531 C 932.671875 420.25 931.910156 416.070313 932.519531 412.800781 C 933.703125 405.5 936.28125 397.710938 942.441406 393.097656 C 947.3125 389.308594 953.621094 388.210938 959.640625 387.867188 Z M 0.03125 387.75 C 6.78125 387.757813 13.539063 387.757813 20.296875 387.75 C 20.660156 403.988281 20.601563 420.238281 21.160156 436.480469 C 31.863281 420.1875 42.601563 403.917969 53.480469 387.738281 C 60.363281 387.777344 67.242188 387.738281 74.132813 387.769531 C 60.332031 408.507813 46.222656 429.050781 32.621094 449.917969 C 28.960938 450.410156 25.269531 450.398438 21.601563 450.078125 C 14.8125 449.621094 8.03125 450.648438 1.25 450.117188 C 0.921875 429.328125 0.371094 408.539063 0.03125 387.75 Z M 98.296875 391.039063 C 107.746094 386.648438 118.433594 387.578125 128.550781 387.6875 C 133.339844 388 138.839844 387.808594 142.632813 391.269531 C 145.710938 393.949219 146.390625 398.4375 145.492188 402.257813 C 144.53125 406.609375 142.5625 410.847656 139.351563 413.988281 C 136.421875 416.769531 132.300781 417.550781 128.460938 418.1875 C 132.3125 419.417969 137.371094 420.949219 137.671875 425.789063 C 137.980469 432.960938 134.550781 440.128906 129.273438 444.910156 C 123.78125 449.328125 116.339844 449.660156 109.632813 450.328125 C 100.273438 450.6875 90.683594 450.898438 81.601563 448.289063 C 78.632813 447.578125 75.621094 445.460938 75.152344 442.25 C 74.246094 435.199219 77.046875 427.738281 82.621094 423.269531 C 85.992188 420.039063 90.691406 419.210938 95.082031 418.308594 C 91.820313 417.460938 87.691406 416.9375 86.269531 413.359375 C 84.046875 404.308594 89.941406 394.578125 98.296875 391.039063 Z M 110.070313 400.9375 C 105.890625 401.789063 104.589844 406.667969 104.371094 410.359375 C 105.851563 412.75 109.191406 412.179688 111.601563 412.589844 C 116.070313 412.609375 122.328125 413.117188 124.472656 408.167969 C 125.480469 405.960938 127.382813 401.839844 123.921875 400.980469 C 119.421875 399.859375 114.601563 400.078125 110.070313 400.9375 Z M 99.890625 425.738281 C 95.742188 427.410156 95.230469 432.660156 95.019531 436.53125 C 100.703125 438.277344 106.8125 437.890625 112.632813 437.21875 C 117.953125 436.300781 118.761719 430.039063 118.410156 425.628906 C 112.363281 424.269531 105.902344 424.109375 99.890625 425.738281 Z M 287.070313 422.609375 C 291.050781 411.058594 294.289063 399.277344 298.300781 387.75 C 304.980469 387.769531 311.660156 387.757813 318.339844 387.75 C 314.441406 399.328125 311.183594 411.109375 307.171875 422.648438 C 305.929688 426.558594 304.023438 430.589844 304.980469 434.789063 C 310.421875 437.339844 316.789063 436.730469 322.589844 435.960938 C 328.113281 435.398438 330.039063 429.417969 331.421875 424.917969 C 335.113281 412.4375 339.28125 400.109375 343.328125 387.730469 C 350.011719 387.777344 356.703125 387.738281 363.382813 387.769531 C 359.523438 399.609375 355.519531 411.398438 351.953125 423.339844 C 349.390625 430.570313 347.261719 438.589844 341.320313 443.878906 C 335.460938 449.078125 327.160156 449.558594 319.746094 450.300781 C 310.101563 450.6875 300.289063 450.769531 290.820313 448.699219 C 287.402344 448.089844 283.890625 446 283.289063 442.289063 C 282.210938 435.5 285.0625 428.949219 287.070313 422.609375 Z M 482.492188 387.757813 C 500.5625 387.769531 518.640625 387.730469 536.722656 387.777344 C 535.28125 392.390625 533.722656 396.96875 532.222656 401.570313 C 520.910156 401.558594 509.613281 401.589844 498.3125 401.550781 C 497.089844 405.289063 495.890625 409.050781 494.679688 412.800781 C 505.300781 412.800781 515.929688 412.789063 526.5625 412.800781 C 525.210938 416.679688 523.890625 420.570313 522.570313 424.46875 C 511.941406 424.488281 501.3125 424.398438 490.691406 424.507813 C 489.460938 428.527344 488.246094 432.539063 487.050781 436.558594 C 498.578125 436.558594 510.113281 436.539063 521.652344 436.570313 C 520.261719 440.988281 518.882813 445.410156 517.652344 449.878906 C 504.328125 450.519531 490.960938 449.570313 477.640625 450.308594 C 472.621094 450.097656 467.613281 450.007813 462.601563 450.449219 C 468.996094 429.480469 475.941406 408.679688 482.492188 387.757813 Z M 731.230469 450.367188 C 744.902344 429.21875 759.429688 408.628906 773.511719 387.738281 C 783.613281 387.777344 793.722656 387.75 803.828125 387.757813 C 804.703125 408.507813 805.992188 429.25 806.441406 450.019531 C 799.703125 450.058594 792.960938 450.007813 786.222656 450.039063 C 786.070313 446.550781 785.929688 443.050781 785.800781 439.558594 C 776.828125 439.539063 767.839844 439.25 758.890625 439.660156 C 755.703125 442.769531 754.8125 448.167969 750.820313 450.289063 C 744.289063 450.050781 737.773438 450.230469 731.230469 450.367188 Z M 766.972656 427.507813 C 773.113281 427.519531 779.246094 427.5 785.390625 427.53125 C 785.511719 418.460938 785.222656 409.398438 785.078125 400.339844 C 778.871094 409.289063 773.011719 418.460938 766.972656 427.507813 Z M 766.972656 427.507813 "/>
</g>
</svg>
